<svg width="60" height="60" viewBox="0 0 60 60" fill="none" xmlns="http://www.w3.org/2000/svg">
<g clip-path="url(#clip0)">
<path d="M30.3717 0.137451C14.0803 0.137451 0.871704 13.3461 0.871704 29.6375C0.871704 45.9288 14.0803 59.1375 30.3717 59.1375C46.6631 59.1375 59.8717 45.9288 59.8717 29.6375C59.8717 13.3461 46.6631 0.137451 30.3717 0.137451ZM49.4312 45.1372C48.7895 43.6967 47.4915 42.701 44.8316 42.0864C39.1947 40.786 33.9461 39.6453 36.4905 34.8467C44.222 20.2392 38.5383 12.4291 30.3717 12.4291C22.0429 12.4291 16.4969 20.5392 24.2529 34.8467C26.8735 39.6748 21.4307 40.813 15.9118 42.0864C13.247 42.701 11.9588 43.704 11.3221 45.1495C7.86812 40.9138 5.78837 35.5153 5.78837 29.6375C5.78837 16.0822 16.8165 5.05412 30.3717 5.05412C43.927 5.05412 54.955 16.0822 54.955 29.6375C54.955 35.5104 52.8777 40.904 49.4312 45.1372Z" fill="#3C72CC"/>
</g>
<defs>
<clipPath id="clip0">
<rect width="59" height="59" fill="white" transform="translate(0.871704 0.137451)"/>
</clipPath>
</defs>
</svg>
