<svg width="60" height="60" viewBox="0 0 60 60" fill="none" xmlns="http://www.w3.org/2000/svg">
<g clip-path="url(#clip0)">
<path d="M47.58 5.05412C47.58 2.34012 45.3774 0.137451 42.6634 0.137451H18.08C15.366 0.137451 13.1634 2.34012 13.1634 5.05412V54.2208C13.1634 56.9348 15.366 59.1375 18.08 59.1375H42.6634C45.3774 59.1375 47.58 56.9348 47.58 54.2208V5.05412ZM26.6842 5.05412H34.0592C34.7377 5.05412 35.2884 5.60478 35.2884 6.28328C35.2884 6.96178 34.7377 7.51245 34.0592 7.51245H26.6842C26.0057 7.51245 25.455 6.96178 25.455 6.28328C25.455 5.60478 26.0057 5.05412 26.6842 5.05412ZM30.3717 54.2208C29.0122 54.2208 27.9134 53.1194 27.9134 51.7625C27.9134 50.4054 29.0122 49.3041 30.3717 49.3041C31.7287 49.3041 32.8276 50.4054 32.8276 51.7625C32.8276 53.1194 31.7287 54.2208 30.3717 54.2208ZM42.6634 46.8458H18.08V12.3701H42.6634V46.8458Z" fill="#585858"/>
</g>
<defs>
<clipPath id="clip0">
<rect width="59" height="59" fill="white" transform="translate(0.871704 0.137451)"/>
</clipPath>
</defs>
</svg>
